<?xml version="1.0" encoding="utf-8"?>
<!DOCTYPE svg PUBLIC "-//W3C//DTD SVG 1.1//EN" "http://www.w3.org/Graphics/SVG/1.1/DTD/svg11.dtd">
<svg version="1.1" id="图形" xmlns="http://www.w3.org/2000/svg" xmlns:xlink="http://www.w3.org/1999/xlink" x="0px" y="0px" width="1024px" height="1024px" viewBox="0 0 1024 1024" enable-background="new 0 0 1024 1024" xml:space="preserve">
  <path fill="#000000" d="M177.50016 504.8l614.4 0c11.30496 0 20.48 9.15456 20.48 20.48s-9.17504 20.48-20.48 20.48l-614.4 0c-11.30496 0-20.48-9.15456-20.48-20.48S166.17472 504.8 177.50016 504.8zM177.50016 54.24l614.4 0c11.30496 0 20.48 9.15456 20.48 20.48s-9.17504 20.48-20.48 20.48l-614.4 0c-11.30496 0-20.48-9.15456-20.48-20.48S166.17472 54.24 177.50016 54.24zM177.50016 279.52l614.4 0c11.30496 0 20.48 9.15456 20.48 20.48s-9.17504 20.48-20.48 20.48l-614.4 0c-11.30496 0-20.48-9.15456-20.48-20.48S166.17472 279.52 177.50016 279.52z" transform="translate(0, 812) scale(1, -1)"/>
</svg>
