<?xml version="1.0" encoding="utf-8"?>
<!DOCTYPE svg PUBLIC "-//W3C//DTD SVG 1.1//EN" "http://www.w3.org/Graphics/SVG/1.1/DTD/svg11.dtd">
<svg version="1.1" id="图形" xmlns="http://www.w3.org/2000/svg" xmlns:xlink="http://www.w3.org/1999/xlink" x="0px" y="0px" width="1026px" height="1024px" viewBox="0 0 1026 1024" enable-background="new 0 0 1026 1024" xml:space="preserve">
  <path fill="#ffffff" d="M338.944 361.639111M503.125333 365.251556M503.125333-90.826667c-202.723556 0-367.644444 164.920889-367.644444 367.644444 0 202.695111 164.920889 367.616 367.644444 367.616s367.644444-164.920889 367.644444-367.616C870.769778 74.122667 705.848889-90.826667 503.125333-90.826667zM503.125333 587.573333c-171.349333 0-310.755556-139.377778-310.755556-310.727111 0-171.349333 139.406222-310.755556 310.755556-310.755556 171.349333 0 310.755556 139.406222 310.755556 310.755556C813.880889 448.167111 674.474667 587.573333 503.125333 587.573333zM532.764444 327.192889l0-235.918222c0-17.720889-8.846222-26.567111-26.567111-26.567111l-6.115556 0c-17.720889 0-26.567111 8.846222-26.567111 26.567111l0 235.918222c0 17.720889 8.874667 26.737778 26.567111 27.107556l7.424 0C524.373333 354.300444 532.764444 345.255111 532.764444 327.192889zM531.712 452.604444l0-57.400889-56.32 0.256 0 57.116444L531.712 452.576z" transform="translate(0, 812) scale(1, -1)"/>
</svg>
