<?xml version="1.0" encoding="utf-8"?>
<!DOCTYPE svg PUBLIC "-//W3C//DTD SVG 1.1//EN" "http://www.w3.org/Graphics/SVG/1.1/DTD/svg11.dtd">
<svg version="1.1" id="图形" xmlns="http://www.w3.org/2000/svg" xmlns:xlink="http://www.w3.org/1999/xlink" x="0px" y="0px" width="1024px" height="1024px" viewBox="0 0 1024 1024" enable-background="new 0 0 1024 1024" xml:space="preserve">
  <path fill="#44B6E4" d="M511.992325 810.562255c281.857413 0 510.570441-228.685399 510.570441-510.565325S793.850761-210.562255 511.992325-210.562255c-281.874809 0-510.556115 228.680283-510.556115 510.560208S230.117516 810.562255 511.992325 810.562255zM511.992325-97.099087c219.279169 0 397.108297 177.828105 397.108297 397.09704 0 219.279169-177.829128 397.102157-397.108297 397.102157-219.267912 0-397.09397-177.822988-397.09397-397.102157C114.898355 80.730041 292.724413-97.099087 511.992325-97.099087zM511.992325 226.474426c0-32.657794 0-143.69368 0-143.69368L185.807335 304.852518l326.184991 222.070748c0 0 0-66.24168 0-143.703913 287.043528 0 326.20034-222.049259 326.20034-352.678388C809.87062 114.027401 756.54818 226.474426 511.992325 226.474426z" transform="translate(0, 812) scale(1, -1)"/>
</svg>
