<?xml version="1.0" encoding="utf-8"?>
<!DOCTYPE svg PUBLIC "-//W3C//DTD SVG 1.1//EN" "http://www.w3.org/Graphics/SVG/1.1/DTD/svg11.dtd">
<svg version="1.1" id="图形" xmlns="http://www.w3.org/2000/svg" xmlns:xlink="http://www.w3.org/1999/xlink" x="0px" y="0px" width="1024px" height="1024px" viewBox="0 0 1024 1024" enable-background="new 0 0 1024 1024" xml:space="preserve">
  <path fill="#6B6B6B" d="M522.016 758.208c-250.24 0-453.984-203.616-453.984-453.984s203.712-453.952 453.984-453.952c250.336 0 453.984 203.584 453.984 453.952S772.384 758.208 522.016 758.208zM522.016-92.896c-219.04 0-397.184 178.176-397.184 397.152 0 219.104 178.144 397.216 397.184 397.216s397.216-178.112 397.216-397.216C919.264 85.28 741.056-92.896 522.016-92.896zM698.144 192.672c16.32 0 30.72-10.208 30.72-24.864 0-12.448-14.4-23.392-30.72-23.392l-150.816 0 0-84.896c0-12.448-12.48-23.424-31.68-23.424-17.28 0-30.72 11.008-30.72 23.424l0 84.896-150.816 0c-16.32 0-29.792 10.976-29.792 24.864 0 13.184 13.472 23.392 29.792 23.392l150.816 0 0 73.216-150.816 0c-16.32 0-29.792 9.504-29.792 24.864 0 12.448 13.472 22.688 29.792 22.688l127.744 0-131.584 193.984c-8.64 10.976-2.88 24.864 14.4 31.456 14.4 5.12 32.672 0.704 40.352-9.504l132.576-194.72 131.552 195.424c7.68 10.976 26.912 16.096 41.312 8.768 16.32-5.12 21.12-19.744 13.44-30.752L703.904 508.896l-131.584-195.424 125.856 0c16.32 0 30.72-10.24 30.72-24.16s-14.4-23.392-30.72-23.392l-150.816 0 0-73.216L698.144 192.704z" transform="translate(0, 812) scale(1, -1)"/>
</svg>
